<?xml version="1.0" encoding="utf-8"?>
<!-- Generator: Adobe Illustrator 27.3.1, SVG Export Plug-In . SVG Version: 6.00 Build 0)  -->
<svg version="1.1" id="Layer_1" xmlns="http://www.w3.org/2000/svg" xmlns:xlink="http://www.w3.org/1999/xlink" x="0px" y="0px"
	 viewBox="0 0 1557.9 409.6" style="enable-background:new 0 0 1557.9 409.6;" xml:space="preserve">
<style type="text/css">
	.st0{fill:#5E7C88;}
	.st1{fill:#434649;}
</style>
<g>
	<path class="st0" d="M405.2,25.8h20.6l90.4,214.7h-22.4l-23.3-57H356.6l-24.3,57h-20.9L405.2,25.8z M414.6,47.7l-50,117.7h98.6
		L414.6,47.7z"/>
	<path class="st0" d="M562.3,25.8h25.8l130.7,188h0.6v-188h20v214.6h-25.8l-130.7-188h-0.6v188h-20L562.3,25.8z"/>
	<path class="st0" d="M783.1,25.8h21.5l69.1,188.4l69.8-188.4h21.2l-81.6,214.7h-20L783.1,25.8z"/>
	<path class="st0" d="M1057.6,25.8h20.6l90.4,214.7h-22.4l-23.4-57H1009l-24.3,57h-20.9L1057.6,25.8z M1067,47.7l-50,117.7h98.6
		L1067,47.7z"/>
	<path class="st0" d="M1239.9,148L1161,25.8h24l64.9,101.9l66.4-101.9h22.4L1259.9,148v92.5h-20L1239.9,148z"/>
	<path class="st0" d="M1424.9,25.8h20.6l90.4,214.7h-22.4l-23.4-57h-113.7l-24.3,57h-20.9L1424.9,25.8z M1434.3,47.7l-50,117.7h98.6
		L1434.3,47.7z"/>
	<path class="st1" d="M50.6,240.5h7.8v-76.6H87v-7.1H22v7.1h28.6L50.6,240.5L50.6,240.5z M105.9,240.5h7.8v-39.7h46.9v39.7h7.8
		v-83.7h-7.8v36.9h-46.8v-36.9h-7.8L105.9,240.5L105.9,240.5z M197.2,240.5h53.1v-7h-45.3v-32.7h40.7v-7.1h-40.7v-29.8h43.4v-7.1
		h-51.2V240.5z"/>
	<path class="st1" d="M465.1,382.4h17.5c7.4,0,18.3-2.7,18.3-15.3c0-7.7-5-12.9-12.2-13.4v-0.2c6.5-1.3,9.8-5.8,9.8-11.3
		c0-12.4-9.3-14.4-17.6-14.4h-15.8V382.4z M470.2,332.4h11.3c6.5,0,11.9,2.2,11.9,9.8c0,3.4-2,9.2-12.6,9.2h-10.6L470.2,332.4
		L470.2,332.4z M470.2,356h12.4c6.5,0,13.1,3.2,13.1,11.3c0,3.9-1.9,10.5-13.9,10.5h-11.7L470.2,356L470.2,356z M521.5,382.4h34.7
		v-4.6h-29.6v-21.3h26.6v-4.6h-26.6v-19.5h28.3v-4.6h-33.4V382.4z M567.9,382.4h5.3l6.2-14.5h29l5.9,14.5h5.6l-23-54.7h-5.3
		L567.9,382.4L567.9,382.4z M606.5,363.3h-25.1l12.7-30L606.5,363.3z M676.5,370.7c-3.7,5.3-9.7,8.5-16.1,8.5
		c-14.3,0-23.2-10.5-23.2-24.1S646,331,660.3,331c5.8-0.1,11.3,2.7,14.6,7.4l4.2-3.5c-4.8-6.1-11.4-8.6-18.8-8.6
		c-16.7,0-28.2,12-28.2,28.7s11.6,28.7,28.2,28.7c8,0,15.1-2.8,20.3-10L676.5,370.7L676.5,370.7z M697.7,382.4h5.1v-25.9h30.6v26
		h5.1v-54.7h-5.1v24.1h-30.6v-24.1h-5.1L697.7,382.4L697.7,382.4z M794.1,332.4h10.8c10.7,0,12.8,6,12.8,9.7s-2.1,9.7-12.8,9.7H794
		L794.1,332.4L794.1,332.4z M788.9,382.4h5.1v-25.9h9.5l15.4,26h5.8l-15.9-26.3c6-0.8,14-3.6,14-14c0-14.3-15.1-14.3-19.5-14.3
		h-14.4v54.7V382.4z M842.4,382.4h34.7v-4.6h-29.6v-21.3h26.6v-4.6h-26.6v-19.5h28.4v-4.6h-33.4L842.4,382.4L842.4,382.4z
		 M892.6,375.6c4.2,5.9,10.6,8.2,17.8,8.2c8.9,0,17-5.5,17-15.4c0-20.5-28.2-10.7-28.2-27.1c0-7,5.7-10.3,12.3-10.3
		c4.3-0.2,8.3,1.9,10.7,5.4l4.4-3.2c-3.7-4.9-9-6.9-14.9-6.9c-9.2,0-17.5,5.2-17.5,15c0,20.8,28.2,11.8,28.2,27.1
		c0,6.6-5.4,10.7-12.3,10.7c-5.1,0.2-9.9-2.4-12.5-6.9L892.6,375.6L892.6,375.6z M943.1,355.1c0,16.7,11.6,28.7,28.3,28.7
		s28.3-12,28.3-28.7s-11.6-28.7-28.3-28.7S943.1,338.4,943.1,355.1z M948.2,355.1c0-13.6,8.9-24.1,23.2-24.1s23.2,10.5,23.2,24.1
		s-8.9,24.1-23.2,24.1S948.2,368.7,948.2,355.1z M1023.8,332.4h10.8c10.7,0,12.8,6,12.8,9.7s-2.1,9.7-12.8,9.7h-10.8V332.4
		L1023.8,332.4z M1018.7,382.4h5.1v-25.9h9.5l15.4,26h5.8l-15.9-26.3c6-0.8,14-3.6,14-14c0-14.3-15.1-14.3-19.5-14.3h-14.4v54.7
		L1018.7,382.4z M1084.8,382.4h5.1v-50.1h18.7v-4.6h-42.5v4.6h18.7L1084.8,382.4L1084.8,382.4z M1148.4,366.2h19.1v-4.2h-19.1V366.2
		z M1213.8,382.4h17.4c7.4,0,18.3-2.7,18.3-15.3c0-7.7-5-12.9-12.2-13.4v-0.2c6.5-1.3,9.8-5.8,9.8-11.3c0-12.4-9.2-14.4-17.6-14.4
		h-15.8L1213.8,382.4L1213.8,382.4z M1218.9,332.4h11.3c6.5,0,11.9,2.2,11.9,9.8c0,3.4-2,9.2-12.6,9.2h-10.5L1218.9,332.4
		L1218.9,332.4z M1218.9,356h12.4c6.5,0,13.1,3.2,13.1,11.3c0,3.9-1.9,10.5-13.9,10.5h-11.6L1218.9,356L1218.9,356z M1263.1,382.4
		h5.3l6.2-14.5h28.9l5.9,14.5h5.7l-23-54.7h-5.2L1263.1,382.4L1263.1,382.4z M1301.7,363.3h-25.1l12.7-30L1301.7,363.3z
		 M1330.8,382.4h30.6v-4.6h-25.4v-50h-5.1L1330.8,382.4L1330.8,382.4z M1377.1,382.4h5.1v-54.7h-5.1V382.4L1377.1,382.4z"/>
</g>
</svg>
